<?xml version="1.0" encoding="UTF-8"?>
<svg id="Capa_2" data-name="Capa 2" xmlns="http://www.w3.org/2000/svg" xmlns:xlink="http://www.w3.org/1999/xlink" viewBox="0 0 41 41">
  <defs>
    <style>
      .cls-1 {
        fill: none;
      }

      .cls-2 {
        fill: #fff;
      }
    </style>
    <clipPath id="clippath">
      <rect class="cls-1" x="-575.75" y="-574.49" width="1852" height="400"/>
    </clipPath>
  </defs>
  <path class="cls-2" d="M26.49,21.93c-.58,0-1.07-.45-1.1-1.04-.11-1.78-.61-3.13-1.49-4.01-1.4-1.4-3.33-1.51-3.89-1.51-.61,0-1.1-.49-1.1-1.1s.49-1.1,1.1-1.1c.99,0,3.5.21,5.45,2.15,1.27,1.28,1.99,3.1,2.13,5.44.04.61-.43,1.13-1.04,1.17-.02,0-.04,0-.07,0Z"/>
  <path class="cls-2" d="M32.3,21.93c-.58,0-1.07-.45-1.1-1.04-.11-1.88-.68-5.41-3.22-7.96-3.03-3.03-6.73-3.27-7.8-3.27-.61,0-1.1-.49-1.1-1.1s.49-1.1,1.1-1.1c3.41,0,6.91,1.46,9.36,3.91,3.06,3.06,3.73,7.19,3.86,9.39.04.61-.43,1.13-1.04,1.17-.02,0-.05,0-.07,0Z"/>
  <path class="cls-2" d="M38.18,21.93c-.58,0-1.07-.45-1.1-1.04-.14-2.29-.9-8.04-5.01-12.15-3.61-3.61-8.59-4.9-12.06-4.9-.61,0-1.1-.49-1.1-1.1s.49-1.1,1.1-1.1c3.9,0,9.53,1.46,13.62,5.54,4.64,4.64,5.5,11.05,5.65,13.58.04.61-.43,1.13-1.04,1.17-.02,0-.04,0-.07,0Z"/>
  <path class="cls-2" d="M30.79,41c-.73,0-1.49-.06-2.29-.19-3.18-.51-6.21-1.81-9.55-4.11-5.21-3.58-9.83-8.21-13.71-13.74-2.16-3.07-3.57-6.07-4.32-9.16h0c-.58-2.44-.64-4.59-.18-6.57.23-.98.62-2.23,1.61-3.21,1.1-1.09,2.22-2.17,3.34-3.24.31-.3.72-.53,1.16-.67.73-.22,1.82-.26,2.88.85l2.91,3.03c1.31,1.36,2.61,2.72,3.92,4.09,1.18,1.23,1.14,2.87-.08,4.07-1.02.99-2.05,1.97-3.08,2.95q-.45.42-.24.96c.09.23.2.49.32.67.2.28.4.56.59.85.56.81,1.09,1.58,1.71,2.25,2.03,2.23,4.07,4.35,6.05,6.3.66.64,1.47,1.17,2.5,1.77.43.25.58.3,1.13-.22l1-.97c.7-.68,1.39-1.35,2.1-2.02,1.24-1.17,2.85-1.16,4,.03,2.41,2.48,4.8,4.98,7.19,7.48,1.14,1.19,1.08,2.84-.13,4l-.69.67c-.81.79-1.63,1.58-2.46,2.34-.43.4-.95.73-1.48.95-1.3.55-2.69.82-4.2.82ZM3.06,13.29c.68,2.82,1.98,5.57,3.98,8.41,3.73,5.32,8.16,9.76,13.16,13.19,3.06,2.1,5.8,3.29,8.64,3.75,2.02.32,3.75.16,5.29-.48.3-.13.6-.32.85-.55.82-.75,1.62-1.53,2.42-2.3l.7-.67c.4-.38.32-.62.06-.89-2.38-2.5-4.77-4.99-7.18-7.47-.21-.22-.45-.39-.91.04-.7.66-1.39,1.33-2.08,2l-1,.97c-.76.73-1.98,1.58-3.77.54-1.01-.59-2.07-1.25-2.94-2.11-2.01-1.98-4.07-4.13-6.13-6.39-.72-.78-1.31-1.65-1.89-2.48-.19-.27-.38-.55-.57-.82-.27-.38-.44-.8-.58-1.15-.54-1.38-.32-2.32.77-3.36,1.02-.97,2.05-1.95,3.06-2.93.37-.36.38-.6.03-.96-1.3-1.36-2.61-2.72-3.91-4.08l-2.91-3.03c-.34-.35-.5-.31-.64-.27-.12.04-.23.11-.29.16-1.11,1.06-2.22,2.13-3.31,3.21-.47.46-.77,1.1-1.01,2.14-.39,1.66-.33,3.43.18,5.55h0Z"/>
</svg>