<?xml version="1.0" encoding="UTF-8"?>
<svg id="Capa_2" data-name="Capa 2" xmlns="http://www.w3.org/2000/svg" xmlns:xlink="http://www.w3.org/1999/xlink" viewBox="0 0 38 38">
  <defs>
    <style>
      .cls-1 {
        fill: none;
      }

      .cls-2 {
        fill-rule: evenodd;
      }

      .cls-2, .cls-3 {
        fill: #efca60;
      }
    </style>
    <clipPath id="clippath">
      <rect class="cls-1" x="-784.3" y="-575.99" width="1852" height="400"/>
    </clipPath>
  </defs>
  <path class="cls-3" d="M19,2.6c9.04,0,16.4,7.36,16.4,16.4s-7.36,16.4-16.4,16.4S2.6,28.04,2.6,19,9.96,2.6,19,2.6h0ZM19,0C8.51,0,0,8.51,0,19s8.51,19,19,19,19-8.51,19-19S29.49,0,19,0h0Z"/>
  <path class="cls-2" d="M21.44,11.95c.69-.02,1.38,0,2.07,0h.29v-3.59c-.37-.04-.76-.09-1.14-.11-.71-.03-1.42-.07-2.13-.05-1.08.02-2.11.29-3,.93-1.03.74-1.59,1.78-1.81,3-.09.51-.11,1.03-.12,1.54-.02.81,0,1.61,0,2.42v.3h-3.44v4.02h3.42v10.09h4.18v-10.08h3.41c.18-1.33.35-2.66.53-4.03-.27,0-.52,0-.77,0-.97,0-3.19,0-3.19,0,0,0,.01-1.99.03-2.85.03-1.18.73-1.54,1.68-1.58Z"/>
</svg>