<?xml version="1.0" encoding="UTF-8"?>
<svg id="Capa_2" data-name="Capa 2" xmlns="http://www.w3.org/2000/svg" xmlns:xlink="http://www.w3.org/1999/xlink" viewBox="0 0 38 38">
  <defs>
    <style>
      .cls-1 {
        fill: none;
      }

      .cls-2 {
        fill: #efca60;
      }
    </style>
    <clipPath id="clippath">
      <rect class="cls-1" x="-900.3" y="-575.99" width="1852" height="400"/>
    </clipPath>
  </defs>
  <path class="cls-2" d="M19,2.6c9.04,0,16.4,7.36,16.4,16.4s-7.36,16.4-16.4,16.4S2.6,28.04,2.6,19,9.96,2.6,19,2.6h0ZM19,0C8.51,0,0,8.51,0,19s8.51,19,19,19,19-8.51,19-19S29.49,0,19,0h0Z"/>
  <g>
    <path class="cls-2" d="M19,11.05c2.57,0,2.88,0,3.89.06.94.04,1.45.2,1.79.33.45.17.77.38,1.11.72.34.34.55.66.72,1.11.13.34.29.85.33,1.79.05,1.02.06,1.32.06,3.89s0,2.88-.06,3.89c-.04.94-.2,1.45-.33,1.79-.17.45-.38.77-.72,1.11-.34.34-.66.55-1.11.72-.34.13-.85.29-1.79.33-1.02.05-1.32.06-3.89.06s-2.88,0-3.89-.06c-.94-.04-1.45-.2-1.79-.33-.45-.17-.77-.38-1.11-.72-.34-.34-.55-.66-.72-1.11-.13-.34-.29-.85-.33-1.79-.05-1.02-.06-1.32-.06-3.89s0-2.88.06-3.89c.04-.94.2-1.45.33-1.79.17-.45.38-.77.72-1.11s.66-.55,1.11-.72c.34-.13.85-.29,1.79-.33,1.02-.05,1.32-.06,3.89-.06M19,9.32c-2.62,0-2.94.01-3.97.06-1.03.05-1.73.21-2.34.45-.63.25-1.17.58-1.71,1.11-.54.54-.86,1.07-1.11,1.71-.24.61-.4,1.31-.45,2.34-.05,1.03-.06,1.36-.06,3.97s.01,2.94.06,3.97c.05,1.03.21,1.73.45,2.34.25.63.58,1.17,1.11,1.71.54.54,1.07.86,1.71,1.11.61.24,1.31.4,2.34.45,1.03.05,1.36.06,3.97.06s2.94-.01,3.97-.06c1.03-.05,1.73-.21,2.34-.45.63-.25,1.17-.58,1.71-1.11.54-.54.86-1.07,1.11-1.71.24-.61.4-1.31.45-2.34.05-1.03.06-1.36.06-3.97s-.01-2.94-.06-3.97c-.05-1.03-.21-1.73-.45-2.34-.25-.63-.58-1.17-1.11-1.71-.54-.54-1.07-.86-1.71-1.11-.61-.24-1.31-.4-2.34-.45-1.03-.05-1.36-.06-3.97-.06h0Z"/>
    <path class="cls-2" d="M19,14c-2.73,0-4.95,2.21-4.95,4.95s2.21,4.95,4.95,4.95,4.95-2.21,4.95-4.95-2.21-4.95-4.95-4.95ZM19,22.16c-1.77,0-3.21-1.44-3.21-3.21s1.44-3.21,3.21-3.21,3.21,1.44,3.21,3.21-1.44,3.21-3.21,3.21Z"/>
    <circle class="cls-2" cx="24.14" cy="13.81" r="1.16"/>
  </g>
</svg>