<?xml version="1.0" encoding="UTF-8"?>
<svg id="Capa_2" data-name="Capa 2" xmlns="http://www.w3.org/2000/svg" xmlns:xlink="http://www.w3.org/1999/xlink" viewBox="0 0 38 38">
  <defs>
    <style>
      .cls-1 {
        fill: none;
      }

      .cls-2 {
        fill: #efca60;
      }
    </style>
    <clipPath id="clippath">
      <rect class="cls-1" x="-1016.3" y="-575.99" width="1852" height="400"/>
    </clipPath>
  </defs>
  <path class="cls-2" d="M19,2.6c9.04,0,16.4,7.36,16.4,16.4s-7.36,16.4-16.4,16.4S2.6,28.04,2.6,19,9.96,2.6,19,2.6h0ZM19,0C8.51,0,0,8.51,0,19s8.51,19,19,19,19-8.51,19-19S29.49,0,19,0h0Z"/>
  <path class="cls-2" d="M26.4,13.84c-1.97-.43-3.44-2.09-3.63-4.1v-.42h-3.32v13.17c0,1.54-1.24,2.79-2.78,2.79-.88,0-1.7-.41-2.23-1.11-.93-1.22-.69-2.97.53-3.9.49-.37,1.08-.57,1.7-.57.29,0,.57.04.85.13v-3.37c-.32-.04-.64-.06-.96-.05-3.37.09-6.02,2.89-5.93,6.26.04,1.54.66,3,1.73,4.1,2.37,2.41,6.23,2.44,8.64.07,1.16-1.14,1.82-2.71,1.83-4.34v-6.74c1.34.96,2.95,1.47,4.6,1.46v-3.28c-.32,0-.65-.03-.96-.1h-.04Z"/>
</svg>