<?xml version="1.0" encoding="UTF-8"?>
<svg id="Capa_2" data-name="Capa 2" xmlns="http://www.w3.org/2000/svg" xmlns:xlink="http://www.w3.org/1999/xlink" viewBox="0 0 41 41">
  <defs>
    <style>
      .cls-1 {
        fill: none;
      }

      .cls-2 {
        fill: #fff;
      }
    </style>
    <clipPath id="clippath">
      <rect class="cls-1" x="-636.75" y="-574.49" width="1852" height="400"/>
    </clipPath>
  </defs>
  <path class="cls-2" d="M20.45,19.88c3.94,0,7.14-3.2,7.14-7.14s-3.2-7.14-7.14-7.14-7.14,3.2-7.14,7.14,3.2,7.14,7.14,7.14ZM20.45,7.59c2.84,0,5.15,2.31,5.15,5.15s-2.31,5.15-5.15,5.15-5.15-2.31-5.15-5.15,2.31-5.15,5.15-5.15Z"/>
  <path class="cls-2" d="M26.73,33.17c-.55-.07-1.05.31-1.12.86s.31,1.05.86,1.12c3.94.53,5.8,1.35,6.25,1.76-.71.8-5.07,2.1-12.21,2.1s-11.62-1.33-12.22-2.06c.37-.32,1.83-1.07,5.48-1.66.55-.09.91-.6.83-1.15-.09-.54-.61-.92-1.14-.83-7.21,1.16-7.21,2.97-7.21,3.56,0,4.08,13.68,4.12,14.27,4.12s14.27-.05,14.27-4.12c0-1.75-2.71-2.99-8.04-3.71Z"/>
  <path class="cls-2" d="M20.41,37.53s.03,0,.04,0c.28,0,.56-.12.75-.34.47-.53,11.41-13,11.99-24.12,0-.12-.02-.23-.05-.34h.05c0-7.03-5.72-12.74-12.74-12.74S7.75,5.68,7.71,12.67c0,0,0,0,0,0-.02.32-.35,8.03,11.94,24.45.18.24.46.39.76.4ZM9.7,12.74h0c0-5.92,4.82-10.74,10.74-10.74s10.74,4.82,10.74,10.74h.06c-.02.08-.06.15-.06.23-.46,8.75-8.16,18.85-10.69,21.95C9.57,19.99,9.7,12.93,9.7,12.8c0-.02,0-.04,0-.06Z"/>
</svg>