<?xml version="1.0" encoding="UTF-8"?>
<svg id="Capa_2" data-name="Capa 2" xmlns="http://www.w3.org/2000/svg" xmlns:xlink="http://www.w3.org/1999/xlink" viewBox="0 0 38 38">
  <defs>
    <style>
      .cls-1 {
        fill: none;
      }

      .cls-2 {
        fill: #efca60;
      }
    </style>
    <clipPath id="clippath">
      <rect class="cls-1" x="-842.3" y="-575.99" width="1852" height="400"/>
    </clipPath>
  </defs>
  <g id="W69w3e.tif">
    <path class="cls-2" d="M27.92,28.34c-1.74,0-3.48,0-5.21,0-.07,0-.11-.02-.15-.08-1.58-2.25-3.15-4.5-4.73-6.75-.02-.03-.05-.06-.07-.1-.17.19-.34.38-.5.57-.88,1.01-1.77,2.01-2.65,3.02-.88,1-1.76,2-2.64,3.01-.07.08-.14.15-.2.24-.06.08-.12.09-.21.09-.48,0-.95,0-1.45,0,2.33-2.65,4.64-5.28,6.96-7.92-.18-.26-.36-.51-.54-.77-2.13-3.03-4.26-6.07-6.39-9.1-.01-.02-.02-.03-.03-.05,1.77,0,3.54,0,5.31,0,1.53,2.18,3.06,4.37,4.6,6.56.02-.03.04-.05.05-.07.45-.51.89-1.02,1.34-1.53,1.01-1.15,2.03-2.31,3.04-3.46.44-.5.88-1.01,1.32-1.51.52,0,1.05,0,1.57,0-.03.04-.05.07-.08.1-.71.81-1.43,1.63-2.14,2.44-.83.95-1.67,1.9-2.5,2.85-.62.7-1.23,1.4-1.85,2.1-.05.06-.05.09,0,.15,2.27,3.23,4.53,6.46,6.8,9.69.12.17.24.33.36.5v.02ZM12.23,11.66s.04.07.06.09c1.73,2.42,3.46,4.84,5.18,7.26,1.94,2.72,3.88,5.44,5.82,8.15.03.05.06.07.13.07.75,0,1.5,0,2.25,0,.02,0,.04,0,.08,0-.14-.2-.27-.38-.4-.57-3.55-4.98-7.1-9.95-10.66-14.93-.04-.05-.08-.08-.15-.08-.74,0-1.47,0-2.21,0h-.11Z"/>
  </g>
  <path class="cls-2" d="M19,2.6c9.04,0,16.4,7.36,16.4,16.4s-7.36,16.4-16.4,16.4S2.6,28.04,2.6,19,9.96,2.6,19,2.6h0ZM19,0C8.51,0,0,8.51,0,19s8.51,19,19,19,19-8.51,19-19S29.49,0,19,0h0Z"/>
</svg>